<svg xmlns="http://www.w3.org/2000/svg" viewBox="0 0 400 400">
  <defs>
    <filter id="gBlue" x="-80%" y="-80%" width="260%" height="260%">
      <feGaussianBlur in="SourceGraphic" stdDeviation="4.5" result="b"/>
      <feMerge><feMergeNode in="b"/><feMergeNode in="SourceGraphic"/></feMerge>
    </filter>
    <filter id="gGreen" x="-80%" y="-80%" width="260%" height="260%">
      <feGaussianBlur in="SourceGraphic" stdDeviation="3.5" result="b"/>
      <feMerge><feMergeNode in="b"/><feMergeNode in="SourceGraphic"/></feMerge>
    </filter>
    <filter id="gAmber" x="-80%" y="-80%" width="260%" height="260%">
      <feGaussianBlur in="SourceGraphic" stdDeviation="3" result="b"/>
      <feMerge><feMergeNode in="b"/><feMergeNode in="SourceGraphic"/></feMerge>
    </filter>
    <filter id="shadow">
      <feDropShadow dx="2" dy="5" stdDeviation="9" flood-color="#000" flood-opacity="0.55"/>
    </filter>
    <linearGradient id="carBody" x1="0" y1="0" x2="0" y2="1">
      <stop offset="0%"   stop-color="#1E2A3E"/>
      <stop offset="40%"  stop-color="#152030"/>
      <stop offset="100%" stop-color="#0D1520"/>
    </linearGradient>
    <linearGradient id="carRim" x1="0" y1="0" x2="1" y2="1">
      <stop offset="0%"   stop-color="#2E3048"/>
      <stop offset="100%" stop-color="#1A1C2E"/>
    </linearGradient>
  </defs>
  <ellipse cx="200" cy="200" rx="190" ry="155" fill="#4B9EFF" opacity="0.025"/>
  <circle cx="148" cy="232" r="1.8" fill="#F59E0B" opacity="0.28"/>
  <circle cx="124" cy="200" r="1.4" fill="#F59E0B" opacity="0.18"/>
  <circle cx="104" cy="168" r="1.2" fill="#F59E0B" opacity="0.12"/>
  <circle cx="195" cy="230" r="2.2" fill="#4B9EFF" opacity="0.32"/>
  <circle cx="194" cy="194" r="1.8" fill="#4B9EFF" opacity="0.22"/>
  <circle cx="254" cy="228" r="1.8" fill="#34D399" opacity="0.26"/>
  <circle cx="276" cy="194" r="1.5" fill="#34D399" opacity="0.18"/>
  <circle cx="294" cy="162" r="1.2" fill="#34D399" opacity="0.12"/>
  <g transform="rotate(-10, 94, 118)" filter="url(#shadow)">
    <rect x="30" y="92" width="128" height="52" rx="8" fill="#17171D" stroke="#F59E0B" stroke-width="1.2" stroke-opacity="0.42"/>
    <rect x="30" y="92" width="4" height="52" rx="2" fill="#F59E0B" opacity="0.88"/>
    <circle cx="46" cy="111" r="5" fill="#F59E0B" opacity="0.55" filter="url(#gAmber)"/>
    <circle cx="46" cy="111" r="2.2" fill="#FFFFFF" opacity="0.90"/>
    <rect x="58" y="99" width="26" height="3" rx="1.5" fill="#8E8E93"/>
    <rect x="58" y="108" width="70" height="5" rx="2.5" fill="#F5F5F7" opacity="0.75"/>
    <rect x="58" y="120" width="42" height="3" rx="1.5" fill="#F59E0B" opacity="0.42"/>
    <rect x="114" y="95" width="36" height="13" rx="6.5" fill="#F59E0B" opacity="0.10" stroke="#F59E0B" stroke-opacity="0.28" stroke-width="0.75"/>
    <rect x="119" y="99" width="26" height="3" rx="1.5" fill="#F59E0B" opacity="0.48"/>
  </g>
  <g transform="rotate(2, 200, 87)" filter="url(#shadow)">
    <rect x="138" y="58" width="126" height="58" rx="9" fill="#17171D" stroke="#4B9EFF" stroke-width="1.5" stroke-opacity="0.62"/>
    <rect x="138" y="58" width="4.5" height="58" rx="2.25" fill="#4B9EFF" filter="url(#gBlue)"/>
    <circle cx="155" cy="79" r="5.5" fill="#4B9EFF" opacity="0.65" filter="url(#gBlue)"/>
    <circle cx="155" cy="79" r="2.5" fill="#FFFFFF" opacity="0.95"/>
    <rect x="168" y="67" width="34" height="3" rx="1.5" fill="#8E8E93"/>
    <rect x="168" y="76" width="82" height="6" rx="3" fill="#F5F5F7" opacity="0.88"/>
    <rect x="168" y="88" width="56" height="3" rx="1.5" fill="#4B9EFF" opacity="0.48"/>
    <rect x="168" y="97" width="46" height="14" rx="7" fill="#4B9EFF" opacity="0.12" stroke="#4B9EFF" stroke-opacity="0.40" stroke-width="0.75"/>
    <rect x="173" y="101" width="36" height="4" rx="2" fill="#4B9EFF" opacity="0.70"/>
  </g>
  <g transform="rotate(9, 307, 117)" filter="url(#shadow)">
    <rect x="246" y="92" width="122" height="50" rx="8" fill="#17171D" stroke="#34D399" stroke-width="1.2" stroke-opacity="0.42"/>
    <rect x="246" y="92" width="4" height="50" rx="2" fill="#34D399" opacity="0.82"/>
    <circle cx="261" cy="110" r="5" fill="#34D399" opacity="0.58" filter="url(#gGreen)"/>
    <circle cx="261" cy="110" r="2.2" fill="#FFFFFF" opacity="0.90"/>
    <rect x="274" y="100" width="26" height="3" rx="1.5" fill="#8E8E93"/>
    <rect x="274" y="109" width="72" height="5" rx="2.5" fill="#F5F5F7" opacity="0.72"/>
    <rect x="274" y="120" width="44" height="3" rx="1.5" fill="#34D399" opacity="0.40"/>
    <rect x="322" y="95" width="38" height="13" rx="6.5" fill="#34D399" opacity="0.10" stroke="#34D399" stroke-opacity="0.28" stroke-width="0.75"/>
    <rect x="327" y="99" width="28" height="3" rx="1.5" fill="#34D399" opacity="0.45"/>
  </g>
  <ellipse cx="200" cy="369" rx="140" ry="14" fill="#4B9EFF" opacity="0.18" filter="url(#gBlue)"/>
  <ellipse cx="200" cy="369" rx="108" ry="7" fill="#4B9EFF" opacity="0.14"/>
  <ellipse cx="200" cy="349" rx="132" ry="6" fill="#000" opacity="0.50"/>
  <path d="M 82,348 L 80,332 C 80,316 92,304 108,297 L 140,282 L 157,264 L 174,250 L 228,250 L 248,263 L 268,278 L 298,308 L 320,332 L 322,348 Z" fill="url(#carBody)" stroke="#4B9EFF" stroke-width="1.5" stroke-opacity="0.48"/>
  <path d="M 104,348 C 104,343 112,336 130,336 C 148,336 156,343 156,348 Z" fill="#07080E"/>
  <path d="M 246,348 C 246,343 255,336 272,336 C 289,336 298,343 298,348 Z" fill="#07080E"/>
  <rect x="97" y="340" width="208" height="6" rx="3" fill="#0A0D18" stroke="#4B9EFF" stroke-width="0.5" stroke-opacity="0.15"/>
  <path d="M 96,318 C 116,310 140,302 162,298 L 240,298 C 262,300 280,307 296,315" fill="none" stroke="#4B9EFF" stroke-width="0.75" stroke-opacity="0.25"/>
  <path d="M 160,265 L 177,251 L 226,251 L 246,264 L 234,273 L 167,273 Z" fill="#0A0D18"/>
  <path d="M 162,264 L 178,252 L 225,252 L 244,263 L 233,272 L 169,272 Z" fill="#162438" opacity="0.88"/>
  <rect x="211" y="253" width="6" height="20" rx="1" fill="#07080E"/>
  <path d="M 82,328 L 84,309 C 86,305 92,302 100,302 L 108,302 L 108,320 L 84,329 Z" fill="#0A0A14" stroke="#4B9EFF" stroke-width="1" stroke-opacity="0.40"/>
  <path d="M 84,326 C 86,318 89,312 95,308" fill="none" stroke="#4B9EFF" stroke-width="2.5" stroke-linecap="round" stroke-opacity="0.82" filter="url(#gBlue)"/>
  <circle cx="104" cy="309" r="4.5" fill="#0A0A14" stroke="#4B9EFF" stroke-width="1" stroke-opacity="0.52"/>
  <circle cx="104" cy="309" r="3" fill="#4B9EFF" opacity="0.58" filter="url(#gBlue)"/>
  <circle cx="104" cy="309" r="1.5" fill="#FFFFFF" opacity="0.82"/>
  <path d="M 313,323 L 318,310 L 322,310 L 322,342 L 313,342 Z" fill="#12080A" stroke="#EF4444" stroke-width="0.75" stroke-opacity="0.38"/>
  <rect x="314" y="314" width="8" height="3" rx="1.5" fill="#EF4444" opacity="0.80"/>
  <rect x="314" y="320" width="6" height="2.5" rx="1.25" fill="#EF4444" opacity="0.55"/>
  <rect x="321" y="313" width="2" height="12" rx="1" fill="#EF4444" opacity="0.65"/>
  <circle cx="130" cy="354" r="23" fill="#080810" stroke="#1C1C28" stroke-width="1.5"/>
  <circle cx="130" cy="354" r="17" fill="url(#carRim)" stroke="#2C2C40" stroke-width="0.75"/>
  <g stroke="#383850" stroke-width="2.5" stroke-linecap="round">
    <line x1="130" y1="340" x2="130" y2="347"/>
    <line x1="146" y1="348" x2="138" y2="351"/>
    <line x1="140" y1="368" x2="135" y2="361"/>
    <line x1="120" y1="368" x2="125" y2="361"/>
    <line x1="114" y1="348" x2="122" y2="351"/>
  </g>
  <circle cx="130" cy="354" r="5.5" fill="#0F0F1A" stroke="#262636" stroke-width="1"/>
  <circle cx="130" cy="354" r="1.5" fill="#4B9EFF" opacity="0.38"/>
  <circle cx="272" cy="354" r="23" fill="#080810" stroke="#1C1C28" stroke-width="1.5"/>
  <circle cx="272" cy="354" r="17" fill="url(#carRim)" stroke="#2C2C40" stroke-width="0.75"/>
  <g stroke="#383850" stroke-width="2.5" stroke-linecap="round">
    <line x1="272" y1="340" x2="272" y2="347"/>
    <line x1="288" y1="348" x2="280" y2="351"/>
    <line x1="282" y1="368" x2="277" y2="361"/>
    <line x1="262" y1="368" x2="267" y2="361"/>
    <line x1="256" y1="348" x2="264" y2="351"/>
  </g>
  <circle cx="272" cy="354" r="5.5" fill="#0F0F1A" stroke="#262636" stroke-width="1"/>
  <circle cx="272" cy="354" r="1.5" fill="#4B9EFF" opacity="0.38"/>
</svg>