<svg xmlns="http://www.w3.org/2000/svg" viewBox="0 0 880 280" width="100%" height="100%">
  <defs>
    <linearGradient id="tl2" x1="0" y1="0" x2="1" y2="0">
      <stop offset="0%" stop-color="#4B9EFF" stop-opacity="0"/>
      <stop offset="6%" stop-color="#4B9EFF" stop-opacity="0.4"/>
      <stop offset="94%" stop-color="#4B9EFF" stop-opacity="0.4"/>
      <stop offset="100%" stop-color="#4B9EFF" stop-opacity="0"/>
    </linearGradient>
  </defs>

  <rect x="36" y="137" width="808" height="2.5" rx="1.25" fill="url(#tl2)"/>

  <!-- EVENT 1: Oil Change -->
  <circle cx="108" cy="138" r="13" fill="#17171D" stroke="#4B9EFF" stroke-width="2" stroke-opacity="0.7"/>
  <circle cx="108" cy="138" r="5.5" fill="#4B9EFF" opacity="0.9"/>
  <rect x="72" y="34" width="72" height="72" rx="14" fill="#17171D" stroke="#4B9EFF" stroke-width="1.25" stroke-opacity="0.45"/>
  <path d="M108,50 Q120,66 120,72 C120,80 115,86 108,86 C101,86 96,80 96,72 C96,66 108,50 108,50 Z"
        fill="none" stroke="#4B9EFF" stroke-width="2" stroke-linecap="round" stroke-opacity="0.85"/>
  <line x1="108" y1="106" x2="108" y2="123" stroke="#4B9EFF" stroke-width="1.25" stroke-opacity="0.3" stroke-dasharray="4 3"/>
  <text x="108" y="168" text-anchor="middle" font-size="12" fill="#636366" font-family="-apple-system,sans-serif">Jan 2023</text>
  <text x="108" y="186" text-anchor="middle" font-size="13" fill="#4B9EFF" font-family="-apple-system,sans-serif" font-weight="600">Oil Change</text>
  <text x="108" y="204" text-anchor="middle" font-size="12" fill="#48484A" font-family="-apple-system,sans-serif">$68</text>

  <!-- EVENT 2: New Tires -->
  <circle cx="254" cy="138" r="13" fill="#17171D" stroke="#F59E0B" stroke-width="2" stroke-opacity="0.7"/>
  <circle cx="254" cy="138" r="5.5" fill="#F59E0B" opacity="0.9"/>
  <rect x="218" y="34" width="72" height="72" rx="14" fill="#17171D" stroke="#F59E0B" stroke-width="1.25" stroke-opacity="0.45"/>
  <circle cx="254" cy="70" r="18" fill="none" stroke="#F59E0B" stroke-width="2" stroke-opacity="0.8"/>
  <circle cx="254" cy="70" r="7" fill="none" stroke="#F59E0B" stroke-width="1.5" stroke-opacity="0.55"/>
  <line x1="254" y1="106" x2="254" y2="123" stroke="#F59E0B" stroke-width="1.25" stroke-opacity="0.3" stroke-dasharray="4 3"/>
  <text x="254" y="168" text-anchor="middle" font-size="12" fill="#636366" font-family="-apple-system,sans-serif">Apr 2023</text>
  <text x="254" y="186" text-anchor="middle" font-size="13" fill="#F59E0B" font-family="-apple-system,sans-serif" font-weight="600">New Tires</text>
  <text x="254" y="204" text-anchor="middle" font-size="12" fill="#48484A" font-family="-apple-system,sans-serif">$420</text>

  <!-- EVENT 3: Brake Pads -->
  <circle cx="400" cy="138" r="13" fill="#17171D" stroke="#EF4444" stroke-width="2" stroke-opacity="0.7"/>
  <circle cx="400" cy="138" r="5.5" fill="#EF4444" opacity="0.9"/>
  <rect x="364" y="34" width="72" height="72" rx="14" fill="#17171D" stroke="#EF4444" stroke-width="1.25" stroke-opacity="0.45"/>
  <rect x="388" y="52" width="6" height="36" rx="3" fill="none" stroke="#EF4444" stroke-width="2" stroke-opacity="0.8"/>
  <rect x="400" y="52" width="6" height="36" rx="3" fill="none" stroke="#EF4444" stroke-width="2" stroke-opacity="0.8"/>
  <rect x="412" y="52" width="6" height="36" rx="3" fill="none" stroke="#EF4444" stroke-width="2" stroke-opacity="0.8"/>
  <line x1="400" y1="106" x2="400" y2="123" stroke="#EF4444" stroke-width="1.25" stroke-opacity="0.3" stroke-dasharray="4 3"/>
  <text x="400" y="168" text-anchor="middle" font-size="12" fill="#636366" font-family="-apple-system,sans-serif">Aug 2023</text>
  <text x="400" y="186" text-anchor="middle" font-size="13" fill="#EF4444" font-family="-apple-system,sans-serif" font-weight="600">Brake Pads</text>
  <text x="400" y="204" text-anchor="middle" font-size="12" fill="#48484A" font-family="-apple-system,sans-serif">$185</text>

  <!-- EVENT 4: Inspection -->
  <circle cx="546" cy="138" r="13" fill="#17171D" stroke="#34D399" stroke-width="2" stroke-opacity="0.7"/>
  <circle cx="546" cy="138" r="5.5" fill="#34D399" opacity="0.9"/>
  <rect x="510" y="34" width="72" height="72" rx="14" fill="#17171D" stroke="#34D399" stroke-width="1.25" stroke-opacity="0.45"/>
  <path d="M532,70 L542,82 L562,56" fill="none" stroke="#34D399" stroke-width="2.5" stroke-linecap="round" stroke-linejoin="round" stroke-opacity="0.88"/>
  <line x1="546" y1="106" x2="546" y2="123" stroke="#34D399" stroke-width="1.25" stroke-opacity="0.3" stroke-dasharray="4 3"/>
  <text x="546" y="168" text-anchor="middle" font-size="12" fill="#636366" font-family="-apple-system,sans-serif">Dec 2023</text>
  <text x="546" y="186" text-anchor="middle" font-size="13" fill="#34D399" font-family="-apple-system,sans-serif" font-weight="600">Inspection</text>
  <text x="546" y="204" text-anchor="middle" font-size="12" fill="#48484A" font-family="-apple-system,sans-serif">$95</text>

  <!-- EVENT 5: Oil Change -->
  <circle cx="692" cy="138" r="13" fill="#17171D" stroke="#4B9EFF" stroke-width="2" stroke-opacity="0.7"/>
  <circle cx="692" cy="138" r="5.5" fill="#4B9EFF" opacity="0.9"/>
  <rect x="656" y="34" width="72" height="72" rx="14" fill="#17171D" stroke="#4B9EFF" stroke-width="1.25" stroke-opacity="0.45"/>
  <path d="M692,50 Q704,66 704,72 C704,80 699,86 692,86 C685,86 680,80 680,72 C680,66 692,50 692,50 Z"
        fill="none" stroke="#4B9EFF" stroke-width="2" stroke-linecap="round" stroke-opacity="0.85"/>
  <line x1="692" y1="106" x2="692" y2="123" stroke="#4B9EFF" stroke-width="1.25" stroke-opacity="0.3" stroke-dasharray="4 3"/>
  <text x="692" y="168" text-anchor="middle" font-size="12" fill="#636366" font-family="-apple-system,sans-serif">Mar 2024</text>
  <text x="692" y="186" text-anchor="middle" font-size="13" fill="#4B9EFF" font-family="-apple-system,sans-serif" font-weight="600">Oil Change</text>
  <text x="692" y="204" text-anchor="middle" font-size="12" fill="#48484A" font-family="-apple-system,sans-serif">$72</text>

  <!-- TODAY -->
  <circle cx="824" cy="138" r="22" fill="#4B9EFF" opacity="0.07"/>
  <circle cx="824" cy="138" r="13" fill="#17171D" stroke="#4B9EFF" stroke-width="2" stroke-opacity="0.85"/>
  <circle cx="824" cy="138" r="5.5" fill="#4B9EFF"/>
  <line x1="824" y1="106" x2="824" y2="123" stroke="#4B9EFF" stroke-width="1.25" stroke-opacity="0.4" stroke-dasharray="4 3"/>
  <text x="824" y="168" text-anchor="middle" font-size="12" fill="#4B9EFF" font-family="-apple-system,sans-serif" font-weight="600">Today</text>
  <rect x="766" y="180" width="116" height="26" rx="13" fill="#4B9EFF" opacity="0.12" stroke="#4B9EFF" stroke-opacity="0.35" stroke-width="0.75"/>
  <text x="824" y="197" text-anchor="middle" font-size="11" fill="#4B9EFF" font-family="-apple-system,sans-serif" font-weight="600">5 records · $840</text>

  <!-- Complete badge -->
  <rect x="720" y="20" width="140" height="30" rx="10" fill="#17171D" stroke="#34D399" stroke-width="1" stroke-opacity="0.45"/>
  <path d="M734,35 L740,41 L754,27" fill="none" stroke="#34D399" stroke-width="1.8" stroke-linecap="round" stroke-linejoin="round" stroke-opacity="0.85"/>
  <text x="808" y="40" text-anchor="middle" font-size="11" fill="#34D399" font-family="-apple-system,sans-serif" font-weight="600" opacity="0.8">Complete history</text>

  <!-- Bottom label -->
  <text x="440" y="252" text-anchor="middle" font-size="11" fill="#636366" opacity="0.5" font-family="-apple-system,sans-serif" letter-spacing="0.06em">EVERY SERVICE · EVERY DATE · EVERY DOLLAR</text>
</svg>