<svg xmlns="http://www.w3.org/2000/svg" viewBox="0 0 80 80">
  <rect width="80" height="80" rx="18" fill="#0D0D10"/>
  <ellipse cx="40" cy="42" rx="28" ry="22" fill="#F59E0B" opacity="0.04"/>
  <g transform="rotate(-8, 38, 42)">
    <rect x="20" y="14" width="38" height="52" rx="5" fill="#FAFAF8"/>
    <rect x="20" y="14" width="38" height="7" rx="5" fill="#EDE9E1"/>
    <rect x="26" y="26" width="26" height="3" rx="1.5" fill="#3A3A3C" opacity="0.45"/>
    <rect x="26" y="32" width="18" height="2.5" rx="1.25" fill="#636366" opacity="0.38"/>
    <rect x="26" y="37" width="22" height="2.5" rx="1.25" fill="#636366" opacity="0.35"/>
    <rect x="26" y="42" width="16" height="2.5" rx="1.25" fill="#636366" opacity="0.32"/>
    <rect x="20" y="49" width="38" height="0.75" rx="0.5" fill="#C0BBB2" opacity="0.55"/>
    <rect x="26" y="53" width="12" height="4" rx="2" fill="#1C1C1E" opacity="0.45"/>
    <rect x="44" y="52" width="10" height="6" rx="3" fill="#1C1C1E" opacity="0.45"/>
  </g>
  <path d="M44 58 Q50 54 52 62 Q54 70 44 66 Z" fill="#F59E0B" opacity="0.25"/>
  <circle cx="16" cy="20" r="2" fill="#F59E0B" opacity="0.22"/>
  <circle cx="64" cy="60" r="1.5" fill="#F59E0B" opacity="0.15"/>
</svg>