<svg xmlns="http://www.w3.org/2000/svg" viewBox="0 0 360 220" width="100%" height="100%">
  <rect x="60" y="18" width="240" height="180" rx="14" fill="#1A1825" stroke="#EF4444" stroke-width="0.75" stroke-opacity="0.25"/>
  <rect x="60" y="18" width="240" height="44" rx="14" fill="#2A1820"/>
  <rect x="60" y="48" width="240" height="14" fill="#2A1820"/>
  <rect x="80" y="14" width="10" height="24" rx="5" fill="#3A3A3C"/>
  <rect x="108" y="14" width="10" height="24" rx="5" fill="#3A3A3C"/>
  <rect x="136" y="14" width="10" height="24" rx="5" fill="#3A3A3C"/>
  <rect x="164" y="14" width="10" height="24" rx="5" fill="#3A3A3C"/>
  <rect x="192" y="14" width="10" height="24" rx="5" fill="#3A3A3C"/>
  <rect x="220" y="14" width="10" height="24" rx="5" fill="#3A3A3C"/>
  <rect x="248" y="14" width="10" height="24" rx="5" fill="#3A3A3C"/>
  <text x="180" y="38" text-anchor="middle" font-size="12" fill="#EF4444" opacity="0.9" font-family="-apple-system,sans-serif" font-weight="600">JUNE</text>
  <g font-size="9" fill="#636366" font-family="-apple-system,sans-serif">
    <text x="85" y="75">M</text><text x="113" y="75">T</text><text x="141" y="75">W</text>
    <text x="169" y="75">T</text><text x="197" y="75">F</text><text x="225" y="75">S</text><text x="253" y="75">S</text>
  </g>
  <line x1="68" y1="80" x2="292" y2="80" stroke="#48484A" stroke-width="0.5" opacity="0.35"/>
  <g fill="#636366" opacity="0.5">
    <circle cx="85" cy="97" r="7"/><circle cx="113" cy="97" r="7"/><circle cx="141" cy="97" r="7"/>
    <circle cx="169" cy="97" r="7"/><circle cx="197" cy="97" r="7"/><circle cx="225" cy="97" r="7"/><circle cx="253" cy="97" r="7"/>
  </g>
  <g fill="#636366" opacity="0.5">
    <circle cx="85" cy="122" r="7"/><circle cx="113" cy="122" r="7"/><circle cx="141" cy="122" r="7"/>
  </g>
  <circle cx="169" cy="122" r="20" fill="#EF4444" opacity="0.12"/>
  <circle cx="169" cy="122" r="13" fill="#1C0808" stroke="#EF4444" stroke-width="1.5" stroke-opacity="0.85"/>
  <line x1="164" y1="117" x2="174" y2="127" stroke="#EF4444" stroke-width="2.5" stroke-linecap="round" stroke-opacity="0.95"/>
  <line x1="174" y1="117" x2="164" y2="127" stroke="#EF4444" stroke-width="2.5" stroke-linecap="round" stroke-opacity="0.95"/>
  <g fill="#636366" opacity="0.5">
    <circle cx="197" cy="122" r="7"/><circle cx="225" cy="122" r="7"/><circle cx="253" cy="122" r="7"/>
  </g>
  <g fill="#636366" opacity="0.28">
    <circle cx="85" cy="147" r="7"/><circle cx="113" cy="147" r="7"/><circle cx="141" cy="147" r="7"/>
    <circle cx="169" cy="147" r="7"/><circle cx="197" cy="147" r="7"/>
  </g>
  <rect x="228" y="158" width="50" height="28" rx="14" fill="#EF4444" opacity="0.92"/>
  <text x="253" y="176" text-anchor="middle" font-size="16" fill="white" font-family="-apple-system,sans-serif" font-weight="700">!</text>
</svg>