<svg xmlns="http://www.w3.org/2000/svg" viewBox="0 0 80 80">
  <defs>
    <filter id="gr" x="-80%" y="-80%" width="260%" height="260%">
      <feGaussianBlur in="SourceGraphic" stdDeviation="2.5" result="b"/>
      <feMerge><feMergeNode in="b"/><feMergeNode in="SourceGraphic"/></feMerge>
    </filter>
  </defs>
  <rect width="80" height="80" rx="18" fill="#0D0D10"/>
  <ellipse cx="40" cy="42" rx="26" ry="22" fill="#EF4444" opacity="0.04"/>
  <rect x="16" y="18" width="48" height="44" rx="8" fill="#17171D" stroke="#EF4444" stroke-width="1" stroke-opacity="0.35"/>
  <rect x="16" y="18" width="48" height="14" rx="8" fill="#2A1A1A"/>
  <rect x="16" y="25" width="48" height="7" fill="#2A1A1A"/>
  <circle cx="28" cy="16" r="3" fill="#17171D" stroke="#EF4444" stroke-width="1" stroke-opacity="0.4"/>
  <circle cx="52" cy="16" r="3" fill="#17171D" stroke="#EF4444" stroke-width="1" stroke-opacity="0.4"/>
  <g fill="#48484A" opacity="0.5">
    <rect x="22" y="39" width="5" height="3" rx="1.5"/>
    <rect x="31" y="39" width="5" height="3" rx="1.5"/>
    <rect x="49" y="39" width="5" height="3" rx="1.5"/>
    <rect x="58" y="39" width="5" height="3" rx="1.5"/>
    <rect x="22" y="48" width="5" height="3" rx="1.5"/>
    <rect x="31" y="48" width="5" height="3" rx="1.5"/>
    <rect x="49" y="48" width="5" height="3" rx="1.5"/>
    <rect x="58" y="48" width="5" height="3" rx="1.5"/>
    <rect x="22" y="57" width="5" height="3" rx="1.5"/>
    <rect x="31" y="57" width="5" height="3" rx="1.5"/>
    <rect x="49" y="57" width="5" height="3" rx="1.5"/>
    <rect x="58" y="57" width="5" height="3" rx="1.5"/>
  </g>
  <circle cx="40" cy="40.5" r="7" fill="#EF4444" opacity="0.15" filter="url(#gr)"/>
  <circle cx="40" cy="40.5" r="5" fill="#17171D" stroke="#EF4444" stroke-width="1.25" stroke-opacity="0.6"/>
  <line x1="37" y1="37.5" x2="43" y2="43.5" stroke="#EF4444" stroke-width="1.5" stroke-linecap="round" stroke-opacity="0.85"/>
  <line x1="43" y1="37.5" x2="37" y2="43.5" stroke="#EF4444" stroke-width="1.5" stroke-linecap="round" stroke-opacity="0.85"/>
  <circle cx="14" cy="16" r="1.5" fill="#EF4444" opacity="0.18"/>
</svg>