<svg xmlns="http://www.w3.org/2000/svg" viewBox="0 0 400 400">
  <defs>
    <radialGradient id="bg_rem" cx="42%" cy="45%" r="65%">
      <stop offset="0%" stop-color="#111827"/>
      <stop offset="100%" stop-color="#0D0D10"/>
    </radialGradient>
    <linearGradient id="calHdr_rem" x1="0" y1="0" x2="0" y2="1">
      <stop offset="0%" stop-color="#3D2A6E"/>
      <stop offset="100%" stop-color="#25194E"/>
    </linearGradient>
    <filter id="gBlue_r" x="-80%" y="-80%" width="260%" height="260%">
      <feGaussianBlur in="SourceGraphic" stdDeviation="4.5" result="b"/>
      <feMerge><feMergeNode in="b"/><feMergeNode in="SourceGraphic"/></feMerge>
    </filter>
    <filter id="gGreen_r" x="-80%" y="-80%" width="260%" height="260%">
      <feGaussianBlur in="SourceGraphic" stdDeviation="3.5" result="b"/>
      <feMerge><feMergeNode in="b"/><feMergeNode in="SourceGraphic"/></feMerge>
    </filter>
    <filter id="gViolet_r" x="-80%" y="-80%" width="260%" height="260%">
      <feGaussianBlur in="SourceGraphic" stdDeviation="5" result="b"/>
      <feMerge><feMergeNode in="b"/><feMergeNode in="SourceGraphic"/></feMerge>
    </filter>
  </defs>
  <rect width="400" height="400" rx="72" fill="url(#bg_rem)"/>
  <ellipse cx="200" cy="205" rx="145" ry="105" fill="#A78BFA" opacity="0.04"/>
  <g transform="rotate(-5, 115, 192)">
    <rect x="50" y="76" width="122" height="224" rx="10" fill="#1A1528"/>
    <rect x="50" y="76" width="122" height="40" rx="10" fill="url(#calHdr_rem)"/>
    <rect x="50" y="101" width="122" height="15" fill="url(#calHdr_rem)"/>
    <rect x="62" y="86" width="48" height="5" rx="2.5" fill="#C4B5FD" opacity="0.75"/>
    <rect x="62" y="97" width="32" height="3" rx="1.5" fill="#C4B5FD" opacity="0.40"/>
    <g fill="#7C6AAE" opacity="0.45">
      <circle cx="61" cy="138" r="4"/><circle cx="75" cy="138" r="4"/>
      <circle cx="89" cy="138" r="4"/><circle cx="103" cy="138" r="4"/>
      <circle cx="117" cy="138" r="4"/><circle cx="131" cy="138" r="4"/>
      <circle cx="145" cy="138" r="4"/>
    </g>
    <g fill="#7C6AAE" opacity="0.45">
      <circle cx="61" cy="155" r="4"/><circle cx="75" cy="155" r="4"/>
      <circle cx="89" cy="155" r="4"/><circle cx="103" cy="155" r="4"/>
      <circle cx="117" cy="155" r="4"/><circle cx="131" cy="155" r="4"/>
      <circle cx="145" cy="155" r="4"/>
    </g>
    <g fill="#7C6AAE" opacity="0.45">
      <circle cx="61" cy="172" r="4"/><circle cx="75" cy="172" r="4"/>
      <circle cx="89" cy="172" r="4"/>
    </g>
    <circle cx="103" cy="172" r="12" fill="#F59E0B" opacity="0.15"/>
    <circle cx="103" cy="172" r="7" fill="#F59E0B" opacity="0.90" filter="url(#gViolet_r)"/>
    <g fill="#7C6AAE" opacity="0.45">
      <circle cx="117" cy="172" r="4"/><circle cx="131" cy="172" r="4"/>
      <circle cx="145" cy="172" r="4"/>
    </g>
    <g fill="#7C6AAE" opacity="0.38">
      <circle cx="61" cy="189" r="4"/><circle cx="75" cy="189" r="4"/>
      <circle cx="89" cy="189" r="4"/><circle cx="103" cy="189" r="4"/>
      <circle cx="117" cy="189" r="4"/><circle cx="131" cy="189" r="4"/>
      <circle cx="145" cy="189" r="4"/>
    </g>
  </g>
  <circle cx="200" cy="195" r="65" fill="none" stroke="#A78BFA" stroke-width="1.5" stroke-opacity="0.10"/>
  <circle cx="200" cy="195" r="46" fill="none" stroke="#A78BFA" stroke-width="1.5" stroke-opacity="0.18"/>
  <circle cx="200" cy="195" r="28" fill="none" stroke="#A78BFA" stroke-width="2" stroke-opacity="0.30"/>
  <path d="M200,172 C190,172 182,179 182,190 L182,202 L218,202 L218,190 C218,179 210,172 200,172 Z" fill="#A78BFA" opacity="0.88" filter="url(#gViolet_r)"/>
  <rect x="180" y="202" width="40" height="6" rx="3" fill="#A78BFA" opacity="0.88"/>
  <circle cx="200" cy="212" r="4.5" fill="#A78BFA" opacity="0.88"/>
  <circle cx="216" cy="174" r="9" fill="#EF4444" filter="url(#gBlue_r)"/>
  <g transform="translate(228, 88)">
    <rect width="130" height="48" rx="10" fill="#17171D" stroke="#F59E0B" stroke-width="1.25" stroke-opacity="0.55"/>
    <rect x="0" y="0" width="4" height="48" rx="2" fill="#F59E0B"/>
    <circle cx="19" cy="17" r="4.5" fill="#F59E0B" opacity="0.85" filter="url(#gViolet_r)"/>
    <rect x="31" y="11" width="38" height="3" rx="1.5" fill="#8E8E93"/>
    <rect x="31" y="21" width="78" height="5" rx="2.5" fill="#F5F5F7" opacity="0.88"/>
    <rect x="31" y="33" width="50" height="10" rx="5" fill="#F59E0B" opacity="0.20" stroke="#F59E0B" stroke-width="0.75" stroke-opacity="0.60"/>
    <rect x="37" y="36.5" width="38" height="3" rx="1.5" fill="#F59E0B" opacity="0.85"/>
  </g>
  <g transform="translate(234, 150)">
    <rect width="118" height="44" rx="10" fill="#17171D" stroke="#4B9EFF" stroke-width="1.25" stroke-opacity="0.45"/>
    <rect x="0" y="0" width="4" height="44" rx="2" fill="#4B9EFF"/>
    <circle cx="19" cy="16" r="4.5" fill="#4B9EFF" opacity="0.85" filter="url(#gBlue_r)"/>
    <rect x="31" y="11" width="32" height="3" rx="1.5" fill="#8E8E93"/>
    <rect x="31" y="20" width="72" height="5" rx="2.5" fill="#F5F5F7" opacity="0.78"/>
  </g>
  <g transform="translate(220, 208)">
    <rect width="136" height="50" rx="10" fill="#17171D" stroke="#34D399" stroke-width="1.25" stroke-opacity="0.50"/>
    <rect x="0" y="0" width="4" height="50" rx="2" fill="#34D399"/>
    <circle cx="19" cy="17" r="4.5" fill="#34D399" opacity="0.85" filter="url(#gGreen_r)"/>
    <rect x="31" y="11" width="36" height="3" rx="1.5" fill="#8E8E93"/>
    <rect x="31" y="22" width="54" height="10" rx="5" fill="#34D399" opacity="0.10" stroke="#34D399" stroke-width="0.75" stroke-opacity="0.40"/>
    <rect x="37" y="25.5" width="42" height="3" rx="1.5" fill="#34D399" opacity="0.65"/>
  </g>
  <g transform="translate(228, 272)">
    <rect width="126" height="44" rx="10" fill="#17171D" stroke="#A78BFA" stroke-width="1.25" stroke-opacity="0.50"/>
    <rect x="0" y="0" width="4" height="44" rx="2" fill="#A78BFA"/>
    <circle cx="19" cy="16" r="4.5" fill="#A78BFA" opacity="0.82"/>
    <rect x="31" y="11" width="30" height="3" rx="1.5" fill="#8E8E93"/>
    <rect x="31" y="21" width="76" height="5" rx="2.5" fill="#F5F5F7" opacity="0.72"/>
  </g>
</svg>