<svg xmlns="http://www.w3.org/2000/svg" viewBox="0 0 400 400">
  <defs>
    <radialGradient id="bg_ul" cx="42%" cy="45%" r="65%">
      <stop offset="0%" stop-color="#111827"/>
      <stop offset="100%" stop-color="#0D0D10"/>
    </radialGradient>
    <linearGradient id="tl_ul" x1="0" y1="0" x2="0" y2="1">
      <stop offset="0%" stop-color="#4B9EFF" stop-opacity="0.30"/>
      <stop offset="30%" stop-color="#4B9EFF" stop-opacity="0.55"/>
      <stop offset="55%" stop-color="#34D399" stop-opacity="0.65"/>
      <stop offset="80%" stop-color="#4B9EFF" stop-opacity="0.55"/>
      <stop offset="100%" stop-color="#4B9EFF" stop-opacity="0.35"/>
    </linearGradient>
    <filter id="gBlue_ul" x="-80%" y="-80%" width="260%" height="260%">
      <feGaussianBlur in="SourceGraphic" stdDeviation="4.5" result="b"/>
      <feMerge><feMergeNode in="b"/><feMergeNode in="SourceGraphic"/></feMerge>
    </filter>
    <filter id="gGreen_ul" x="-80%" y="-80%" width="260%" height="260%">
      <feGaussianBlur in="SourceGraphic" stdDeviation="3.5" result="b"/>
      <feMerge><feMergeNode in="b"/><feMergeNode in="SourceGraphic"/></feMerge>
    </filter>
    <filter id="shadow_ul">
      <feDropShadow dx="2" dy="4" stdDeviation="9" flood-color="#000" flood-opacity="0.45"/>
    </filter>
  </defs>
  <rect width="400" height="400" rx="72" fill="url(#bg_ul)"/>
  <ellipse cx="200" cy="200" rx="150" ry="120" fill="#34D399" opacity="0.03"/>
  <rect x="198.5" y="58" width="3" height="284" rx="1.5" fill="url(#tl_ul)"/>
  <circle cx="200" cy="327" r="9" fill="#4B9EFF" opacity="0.18" filter="url(#gBlue_ul)"/>
  <circle cx="200" cy="327" r="5.5" fill="#4B9EFF" opacity="0.26" filter="url(#gBlue_ul)"/>
  <circle cx="200" cy="327" r="3.5" fill="#FFFFFF" opacity="0.92"/>
  <circle cx="200" cy="327" r="1.8" fill="#4B9EFF"/>
  <circle cx="200" cy="83" r="3.5" fill="#F59E0B" opacity="0.28"/>
  <g opacity="0.30">
    <rect x="37" y="66" width="127" height="34" rx="8" fill="#17171D" stroke="#F59E0B" stroke-width="1" stroke-opacity="0.32"/>
    <rect x="37" y="66" width="4" height="34" rx="2" fill="#F59E0B"/>
    <rect x="49" y="73" width="34" height="3" rx="1.5" fill="#8E8E93"/>
    <rect x="49" y="80" width="68" height="4" rx="2" fill="#F5F5F7" opacity="0.55"/>
    <rect x="49" y="88" width="42" height="3" rx="1.5" fill="#48484A"/>
  </g>
  <circle cx="200" cy="150" r="4" fill="#34D399" opacity="0.45" filter="url(#gGreen_ul)"/>
  <circle cx="200" cy="150" r="2" fill="#34D399" opacity="0.52"/>
  <g opacity="0.52">
    <rect x="230" y="130" width="128" height="42" rx="8" fill="#17171D" stroke="#34D399" stroke-width="1.1" stroke-opacity="0.42"/>
    <rect x="230" y="130" width="4" height="42" rx="2" fill="#34D399"/>
    <circle cx="245" cy="144" r="4" fill="#34D399" opacity="0.65" filter="url(#gGreen_ul)"/>
    <rect x="257" y="137" width="28" height="3" rx="1.5" fill="#8E8E93"/>
    <rect x="257" y="145" width="74" height="5" rx="2.5" fill="#F5F5F7" opacity="0.62"/>
  </g>
  <circle cx="200" cy="217" r="4.5" fill="#A78BFA" opacity="0.60"/>
  <g opacity="0.68">
    <rect x="37" y="195" width="127" height="46" rx="8" fill="#17171D" stroke="#A78BFA" stroke-width="1.1" stroke-opacity="0.46"/>
    <rect x="37" y="195" width="4" height="46" rx="2" fill="#A78BFA"/>
    <circle cx="51" cy="210" r="4" fill="#A78BFA" opacity="0.78"/>
    <rect x="63" y="203" width="24" height="3" rx="1.5" fill="#8E8E93"/>
    <rect x="101" y="203" width="38" height="3" rx="1.5" fill="#F5F5F7" opacity="0.65"/>
    <rect x="63" y="212" width="20" height="3" rx="1.5" fill="#8E8E93"/>
    <rect x="101" y="212" width="28" height="3" rx="1.5" fill="#F5F5F7" opacity="0.65"/>
  </g>
  <circle cx="200" cy="284" r="5" fill="#34D399" opacity="0.72" filter="url(#gGreen_ul)"/>
  <g opacity="0.82">
    <rect x="230" y="260" width="132" height="50" rx="8" fill="#17171D" stroke="#34D399" stroke-width="1.25" stroke-opacity="0.52"/>
    <rect x="230" y="260" width="4" height="50" rx="2" fill="#34D399"/>
    <circle cx="247" cy="276" r="4.5" fill="#34D399" filter="url(#gGreen_ul)"/>
    <rect x="260" y="269" width="34" height="3" rx="1.5" fill="#8E8E93"/>
    <rect x="260" y="278" width="80" height="5" rx="2.5" fill="#F5F5F7" opacity="0.80"/>
  </g>
  <g filter="url(#shadow_ul)">
    <rect x="22" y="301" width="138" height="54" rx="10" fill="#17171D" stroke="#4B9EFF" stroke-width="1.5" stroke-opacity="0.58"/>
  </g>
  <rect x="22" y="301" width="4.5" height="54" rx="2.25" fill="#4B9EFF" filter="url(#gBlue_ul)"/>
  <circle cx="38" cy="316" r="5.5" fill="#4B9EFF" filter="url(#gBlue_ul)"/>
  <circle cx="38" cy="316" r="2.5" fill="#FFFFFF" opacity="0.95"/>
  <rect x="52" y="307" width="40" height="3" rx="1.5" fill="#8E8E93"/>
  <rect x="52" y="316" width="88" height="6" rx="3" fill="#F5F5F7" opacity="0.92"/>
  <rect x="52" y="328" width="56" height="3" rx="1.5" fill="#4B9EFF" opacity="0.48"/>
  <rect x="52" y="336" width="44" height="14" rx="7" fill="#4B9EFF" opacity="0.14" stroke="#4B9EFF" stroke-opacity="0.42" stroke-width="0.75"/>
  <rect x="57" y="341" width="34" height="4" rx="2" fill="#4B9EFF" opacity="0.72"/>
</svg>