<svg xmlns="http://www.w3.org/2000/svg" viewBox="0 0 320 180" width="100%" height="100%">
  <circle cx="160" cy="88" r="60" fill="#34D399" opacity="0.05"/>
  <circle cx="160" cy="88" r="48" fill="#34D399" opacity="0.04"/>
  <circle cx="160" cy="88" r="36" fill="none" stroke="#34D399" stroke-width="0.75" stroke-opacity="0.15"/>
  <path d="M100,80 C100,55 118,36 160,30 C202,36 220,55 220,80 L220,106 C220,132 194,150 160,158 C126,150 100,132 100,106 Z"
        fill="#17171D" stroke="#34D399" stroke-width="1.25" stroke-opacity="0.55"/>
  <path d="M100,80 C100,55 118,36 160,30 C202,36 220,55 220,80"
        fill="#34D399" opacity="0.06"/>
  <rect x="138" y="96" width="44" height="34" rx="8" fill="#34D399" opacity="0.80"/>
  <path d="M146,96 L146,84 C146,74 174,74 174,84 L174,96" fill="none" stroke="#34D399" stroke-width="2" stroke-linecap="round"/>
  <circle cx="160" cy="113" r="4" fill="#0D2018"/>
  <rect x="158" y="115" width="4" height="6" rx="2" fill="#0D2018"/>
  <circle cx="216" cy="44" r="8" fill="#34D399" opacity="0.10"/>
  <circle cx="104" cy="138" r="6" fill="#34D399" opacity="0.08"/>
  <text x="160" y="168" text-anchor="middle" font-size="11" fill="#34D399" opacity="0.55" font-family="-apple-system,sans-serif" font-weight="600" letter-spacing="0.08em">YOUR DATA ONLY</text>
</svg>