<svg xmlns="http://www.w3.org/2000/svg" viewBox="0 0 80 80">
  <defs>
    <filter id="g1" x="-80%" y="-80%" width="260%" height="260%">
      <feGaussianBlur in="SourceGraphic" stdDeviation="2.5" result="b"/>
      <feMerge><feMergeNode in="b"/><feMergeNode in="SourceGraphic"/></feMerge>
    </filter>
  </defs>
  <rect width="80" height="80" rx="18" fill="#0D0D10"/>
  <ellipse cx="40" cy="40" rx="36" ry="30" fill="#4B9EFF" opacity="0.04"/>
  <circle cx="20" cy="30" r="10" fill="#17171D" stroke="#4B9EFF" stroke-width="1" stroke-opacity="0.45"/>
  <circle cx="20" cy="30" r="5.5" fill="#4B9EFF" opacity="0.18"/>
  <circle cx="20" cy="30" r="3" fill="#4B9EFF" opacity="0.55"/>
  <circle cx="60" cy="30" r="10" fill="#17171D" stroke="#34D399" stroke-width="1" stroke-opacity="0.45"/>
  <circle cx="60" cy="30" r="5.5" fill="#34D399" opacity="0.18"/>
  <circle cx="60" cy="30" r="3" fill="#34D399" opacity="0.55"/>
  <path d="M31 30 L49 30" fill="none" stroke="#4B9EFF" stroke-width="1.5" stroke-linecap="round" stroke-dasharray="3 2" opacity="0.55"/>
  <path d="M44 25 L49 30 L44 35" fill="none" stroke="#4B9EFF" stroke-width="1.5" stroke-linecap="round" stroke-linejoin="round"/>
  <rect x="5" y="50" width="26" height="22" rx="7" fill="#17171D" stroke="#4B9EFF" stroke-width="0.75" stroke-opacity="0.38"/>
  <rect x="5" y="50" width="3" height="22" rx="1.5" fill="#4B9EFF" opacity="0.7"/>
  <rect x="12" y="55" width="14" height="2.5" rx="1.25" fill="#8E8E93" opacity="0.5"/>
  <rect x="12" y="60" width="12" height="2" rx="1" fill="#F5F5F7" opacity="0.35"/>
  <rect x="12" y="64" width="10" height="2" rx="1" fill="#F5F5F7" opacity="0.25"/>
  <rect x="49" y="50" width="26" height="22" rx="7" fill="#17171D" stroke="#34D399" stroke-width="0.75" stroke-opacity="0.38"/>
  <rect x="49" y="50" width="3" height="22" rx="1.5" fill="#34D399" opacity="0.7"/>
  <rect x="56" y="55" width="14" height="2.5" rx="1.25" fill="#8E8E93" opacity="0.5"/>
  <rect x="56" y="60" width="12" height="2" rx="1" fill="#F5F5F7" opacity="0.35"/>
  <rect x="56" y="64" width="10" height="2" rx="1" fill="#F5F5F7" opacity="0.25"/>
  <circle cx="12" cy="22" r="2" fill="#4B9EFF" opacity="0.18"/>
  <circle cx="68" cy="52" r="1.5" fill="#34D399" opacity="0.18"/>
</svg>