<svg xmlns="http://www.w3.org/2000/svg" viewBox="0 0 320 180" width="100%" height="100%">
  <circle cx="72" cy="72" r="30" fill="#17171D" stroke="#4B9EFF" stroke-width="1" stroke-opacity="0.4"/>
  <circle cx="72" cy="58" r="12" fill="#4B9EFF" opacity="0.15"/>
  <circle cx="72" cy="58" r="7" fill="#4B9EFF" opacity="0.4"/>
  <circle cx="72" cy="58" r="3.5" fill="#4B9EFF" opacity="0.8"/>
  <path d="M48,82 Q48,72 72,72 Q96,72 96,82" fill="#4B9EFF" opacity="0.2"/>
  <path d="M48,84 Q48,74 72,74 Q96,74 96,84" fill="none" stroke="#4B9EFF" stroke-width="1" stroke-opacity="0.45"/>
  <circle cx="248" cy="72" r="30" fill="#17171D" stroke="#34D399" stroke-width="1" stroke-opacity="0.4"/>
  <circle cx="248" cy="58" r="12" fill="#34D399" opacity="0.15"/>
  <circle cx="248" cy="58" r="7" fill="#34D399" opacity="0.4"/>
  <circle cx="248" cy="58" r="3.5" fill="#34D399" opacity="0.8"/>
  <path d="M224,82 Q224,72 248,72 Q272,72 272,82" fill="#34D399" opacity="0.2"/>
  <path d="M224,84 Q224,74 248,74 Q272,74 272,84" fill="none" stroke="#34D399" stroke-width="1" stroke-opacity="0.45"/>
  <rect x="126" y="48" width="68" height="82" rx="8" fill="#17171D" stroke="#4B9EFF" stroke-width="1" stroke-opacity="0.35"/>
  <rect x="126" y="48" width="68" height="12" rx="8" fill="#1A2A3E"/>
  <rect x="134" y="52" width="36" height="4" rx="2" fill="#4B9EFF" opacity="0.45"/>
  <rect x="133" y="68" width="52" height="3" rx="1.5" fill="#8E8E93" opacity="0.5"/>
  <rect x="133" y="77" width="44" height="3" rx="1.5" fill="#F5F5F7" opacity="0.35"/>
  <rect x="133" y="86" width="48" height="3" rx="1.5" fill="#F5F5F7" opacity="0.3"/>
  <rect x="133" y="95" width="40" height="3" rx="1.5" fill="#F5F5F7" opacity="0.25"/>
  <line x1="130" y1="106" x2="186" y2="106" stroke="#4B9EFF" stroke-width="0.5" stroke-opacity="0.25"/>
  <rect x="133" y="112" width="52" height="8" rx="4" fill="#4B9EFF" opacity="0.12" stroke="#4B9EFF" stroke-opacity="0.3" stroke-width="0.75"/>
  <rect x="137" y="115" width="44" height="3" rx="1.5" fill="#4B9EFF" opacity="0.55"/>
  <path d="M104,72 L124,72" stroke="#4B9EFF" stroke-width="1.5" stroke-opacity="0.5" stroke-dasharray="3 3" fill="none"/>
  <path d="M118,66 L125,72 L118,78" fill="none" stroke="#4B9EFF" stroke-width="1.5" stroke-linecap="round" stroke-linejoin="round" opacity="0.7"/>
  <path d="M196,72 L216,72" stroke="#34D399" stroke-width="1.5" stroke-opacity="0.5" stroke-dasharray="3 3" fill="none"/>
  <path d="M210,66 L217,72 L210,78" fill="none" stroke="#34D399" stroke-width="1.5" stroke-linecap="round" stroke-linejoin="round" opacity="0.7"/>
  <text x="160" y="158" text-anchor="middle" font-size="11" fill="#4B9EFF" opacity="0.55" font-family="-apple-system,sans-serif" font-weight="600" letter-spacing="0.08em">HISTORY TRANSFER</text>
</svg>